# xmcd
#
# Track frame offsets:
#	150
#	16082
#	32868
#	48805
#	62971
#	76201
#	94652
#	110950
#	125939
#	141686
#	162047
#	174499
#	189065
#	207044
#	222707
#	239540
#	252288
#	266801
#	281502
#	293192
#	307966
#	321647
#	337212
#
# Disc length: 4649 seconds
#
# Revision: 1
# Processed by: cddbd v1.5.2PL0 Copyright (c) Steve Scherf et al.
# Submitted via: audiograbber 1.83.01
#
DISCID=6b122717
DTITLE=Glenn Erickson - Diamondback Records Compilation 23
DYEAR=2017
DGENRE=Country
TTITLE0=I Can´t Get Over You -Allen Karl 
TTITLE1=After The Lovin´  -B. Jeff Stone
TTITLE2=Then Give Him Back To Me -Shavonne
TTITLE3=Carry Me Home -Cennis Blair
TTITLE4=Arms Of A Stranger -Donna Cunningham
TTITLE5=Gypsy Whiteemoon -The Long and Short Of It 
TTITLE6=Life Get Teejus Don´t It -Bryan Chalker
TTITLE7=Texas Tears -Luanne Hunt
TTITLE8=Your Name Is On My Lips Again -Allen Karl and Donna Cunningham
TTITLE9=Waiting In The Dark -David Star
TTITLE10=Bluebird Island -George Longard and Kelly Rose
TTITLE11=Phillip Clarkson -Pedro and the Amigo
TTITLE12=I´m Back In Minasota -Mitch Snow
TTITLE13=Second Fiddle -Chris Anderson
TTITLE14=More Afraid -Marty Dunn
TTITLE15=Barnyard Boogie -Allan Traynor
TTITLE16=Pillin´ The Road -Ray William Roldan
TTITLE17=Keep The Ones You Got -Glenn Erickson and April Gadler
TTITLE18=You´re The Only One -Wendy Ford
TTITLE19=Crocodile Tears -Peter Frew
TTITLE20=Hold On -Karen Eden
TTITLE21=Hotel Happiness -Walter Wiz Wals
TTITLE22=Even On A Bad Day -Glenn Erickson
EXTD=
EXTT0=
EXTT1=
EXTT2=
EXTT3=
EXTT4=
EXTT5=
EXTT6=
EXTT7=
EXTT8=
EXTT9=
EXTT10=
EXTT11=
EXTT12=
EXTT13=
EXTT14=
EXTT15=
EXTT16=
EXTT17=
EXTT18=
EXTT19=
EXTT20=
EXTT21=
EXTT22=
PLAYORDER=
